<svg width="53" height="51" viewBox="0 0 53 51" fill="none" xmlns="http://www.w3.org/2000/svg">
<path d="M41.7926 17.7344C42.7151 17.2226 43.0462 16.0764 42.4309 15.2547C40.4681 12.633 37.812 10.5473 34.723 9.22331C31.048 7.64812 26.9488 7.23177 23.0127 8.03391C19.0766 8.83605 15.5054 10.8155 12.8107 13.6888C10.1161 16.562 8.43617 20.1817 8.01164 24.0292C7.5871 27.8768 8.43973 31.7548 10.4474 35.1079C12.4551 38.4609 15.5147 41.1169 19.1882 42.6955C22.8616 44.2741 26.9604 44.6942 30.8973 43.8956C34.1943 43.2269 37.2362 41.7322 39.7223 39.5779C40.5219 38.8849 40.4648 37.694 39.6794 37.0116V37.0116C38.9029 36.3368 37.7076 36.4165 36.9006 37.0834C34.9632 38.6842 32.63 39.7981 30.1106 40.3091C26.9611 40.9479 23.6821 40.6118 20.7433 39.349C17.8046 38.0861 15.3568 35.9613 13.7507 33.2789C12.1446 30.5964 11.4625 27.494 11.8021 24.416C12.1417 21.3379 13.4856 18.4422 15.6414 16.1436C17.7971 13.845 20.654 12.2614 23.8029 11.6197C26.9518 10.978 30.2311 11.3111 33.1712 12.5712C35.5444 13.5885 37.5983 15.1677 39.1482 17.1489C39.766 17.9388 40.8919 18.2342 41.7926 17.7344V17.7344Z" fill="#E81504"/>
<path d="M16.2481 30.6276C15.6052 30.9223 15.3234 31.6687 15.6898 32.2496C16.8599 34.1043 18.5241 35.6351 20.5199 36.6774C22.8933 37.9169 25.614 38.402 28.2917 38.0629C30.9695 37.7239 33.4669 36.5782 35.4258 34.7902C37.3847 33.0022 38.7046 30.6636 39.1962 28.1097C39.6878 25.5559 39.3258 22.9179 38.1623 20.5741C36.9987 18.2303 35.0933 16.3009 32.7191 15.0626C30.345 13.8243 27.6241 13.3407 24.9465 13.6812C22.7008 13.9667 20.5823 14.8195 18.8022 16.1427C18.2344 16.5648 18.2117 17.3598 18.7001 17.8541V17.8541C19.1846 18.3444 19.989 18.3518 20.5624 17.9463C21.9448 16.9688 23.5669 16.3373 25.2817 16.1192C27.4238 15.8469 29.6005 16.2338 31.4998 17.2244C33.3991 18.215 34.9235 19.7585 35.8543 21.6336C36.7852 23.5087 37.0747 25.619 36.6815 27.6621C36.2882 29.7052 35.2323 31.576 33.6651 33.0065C32.098 34.4369 30.1001 35.3534 27.9579 35.6247C25.8157 35.8959 23.6392 35.5079 21.7404 34.5163C20.2104 33.7172 18.9241 32.5594 17.9957 31.1585C17.6226 30.5955 16.8801 30.3378 16.2481 30.6276V30.6276Z" fill="#E81504"/>
<path d="M34.1755 24.9819C34.6315 24.8835 34.9216 24.4466 34.774 24.0194C34.3028 22.655 33.4627 21.4297 32.3336 20.4728C30.9918 19.3357 29.3105 18.6358 27.5301 18.4731C25.7497 18.3104 23.9614 18.6933 22.421 19.5669C20.8805 20.4406 19.6668 21.7603 18.9535 23.3374C18.2401 24.9144 18.0636 26.668 18.4492 28.3473C18.8348 30.0267 19.7628 31.5457 21.1004 32.6873C22.438 33.8288 24.1168 34.5344 25.8965 34.7031C27.3953 34.8451 28.901 34.6003 30.2609 34.0008C30.685 33.8139 30.8183 33.3119 30.582 32.9236V32.9236C30.3454 32.5346 29.8275 32.4083 29.3978 32.5852C28.3515 33.0161 27.2046 33.1885 26.0628 33.0803C24.639 32.9454 23.296 32.381 22.2259 31.4677C21.1558 30.5545 20.4135 29.3392 20.105 27.9958C19.7965 26.6523 19.9377 25.2494 20.5084 23.9878C21.0791 22.7262 22.05 21.6704 23.2824 20.9714C24.5148 20.2725 25.9454 19.9662 27.3697 20.0964C28.794 20.2265 30.1391 20.7865 31.2125 21.6961C32.0719 22.4245 32.722 23.3472 33.1078 24.3752C33.2674 24.8003 33.7178 25.0807 34.1755 24.9819V24.9819Z" fill="#E81504"/>
<path d="M22.6791 27.5726C22.407 27.6212 22.2257 27.8734 22.3034 28.1298C22.5517 28.9497 23.0225 29.6947 23.6711 30.2863C24.4416 30.989 25.4237 31.4391 26.4765 31.5722C27.5294 31.7053 28.599 31.5144 29.5322 31.0271C30.4653 30.5397 31.2141 29.7808 31.6713 28.8592C32.1284 27.9375 32.2705 26.9003 32.077 25.8962C31.8836 24.8921 31.3646 23.9727 30.5945 23.2697C29.8243 22.5666 28.8425 22.116 27.7897 21.9825C26.9024 21.8699 26.0031 21.9874 25.1835 22.3186C24.9292 22.4214 24.8408 22.7158 24.973 22.9502V22.9502C25.1057 23.1854 25.4101 23.2702 25.668 23.1734C26.2979 22.9367 26.9824 22.8557 27.6582 22.9414C28.5004 23.0483 29.2858 23.4087 29.902 23.9712C30.5181 24.5336 30.9333 25.2692 31.088 26.0724C31.2428 26.8757 31.1291 27.7054 30.7634 28.4428C30.3977 29.1801 29.7986 29.7872 29.0521 30.1771C28.3056 30.567 27.4499 30.7196 26.6076 30.6132C25.7653 30.5067 24.9797 30.1466 24.3633 29.5845C23.8701 29.1347 23.5055 28.5741 23.3 27.9565C23.2147 27.7003 22.9532 27.5236 22.6791 27.5726V27.5726Z" fill="#E81504"/>
<path d="M30.0484 26.414C30.2268 26.3911 30.353 26.2331 30.3113 26.0637C30.1779 25.5215 29.897 25.021 29.4947 24.6149C29.0171 24.1326 28.3929 23.8082 27.7117 23.6881C27.0304 23.568 26.3272 23.6583 25.7027 23.9463C25.0781 24.2342 24.5645 24.7049 24.2353 25.2908C23.9061 25.8767 23.7782 26.5479 23.8701 27.208C23.962 27.8681 24.2689 28.4833 24.7467 28.9654C25.2246 29.4474 25.8489 29.7716 26.5302 29.8915C27.1049 29.9926 27.6953 29.9439 28.2408 29.7532C28.409 29.6943 28.4759 29.5059 28.3977 29.3494V29.3494C28.3192 29.1919 28.1238 29.1268 27.9531 29.1818C27.5346 29.3165 27.0857 29.3481 26.6482 29.2711C26.1032 29.1752 25.6037 28.9159 25.2214 28.5302C24.8391 28.1446 24.5936 27.6524 24.5201 27.1243C24.4466 26.5962 24.5489 26.0593 24.8123 25.5906C25.0756 25.1218 25.4866 24.7453 25.9862 24.5149C26.4858 24.2846 27.0484 24.2123 27.5934 24.3084C28.1384 24.4045 28.6377 24.6641 29.0198 25.0499C29.3252 25.3581 29.5431 25.7344 29.6558 26.1425C29.7028 26.3129 29.8678 26.4371 30.0484 26.414V26.414Z" fill="#E81504"/>
</svg>
